<?xml version="1.0" encoding="UTF-8" standalone="no" ?>
<!DOCTYPE svg PUBLIC "-//W3C//DTD SVG 1.1//EN" "http://www.w3.org/Graphics/SVG/1.1/DTD/svg11.dtd">
<svg xmlns="http://www.w3.org/2000/svg" xmlns:xlink="http://www.w3.org/1999/xlink" version="1.1" width="1080" height="1080" viewBox="0 0 1080 1080" xml:space="preserve">
<desc>Created with Fabric.js 5.2.4</desc>
<defs>
</defs>
<rect x="0" y="0" width="100%" height="100%" fill="transparent"></rect>
<g transform="matrix(1 0 0 1 540 540)" id="b094491b-e0ec-41f2-9db9-740744b86f7a"  >
<rect style="stroke: none; stroke-width: 1; stroke-dasharray: none; stroke-linecap: butt; stroke-dashoffset: 0; stroke-linejoin: miter; stroke-miterlimit: 4; fill: rgb(255,255,255); fill-rule: nonzero; opacity: 1; visibility: hidden;" vector-effect="non-scaling-stroke"  x="-540" y="-540" rx="0" ry="0" width="1080" height="1080" />
</g>
<g transform="matrix(1 0 0 1 540 540)" id="f5771eb1-9c85-48aa-ae70-b47d54866e09"  >
</g>
<g transform="matrix(1 0 0 1 540 540)"  >
<g style="" vector-effect="non-scaling-stroke"   >
		<g transform="matrix(1 0 0 1 0 0)"  >
<rect style="stroke: none; stroke-width: 1; stroke-dasharray: none; stroke-linecap: butt; stroke-dashoffset: 0; stroke-linejoin: miter; stroke-miterlimit: 4; fill: rgb(255,255,255); fill-rule: nonzero; opacity: 1;" vector-effect="non-scaling-stroke"  x="-480" y="-75" rx="0" ry="0" width="960" height="150" />
</g>
		<g transform="matrix(1 0 0 1 0 -12.27)"  >
<path style="stroke: none; stroke-width: 1; stroke-dasharray: none; stroke-linecap: butt; stroke-dashoffset: 0; stroke-linejoin: miter; stroke-miterlimit: 4; fill: rgb(250,114,104); fill-rule: nonzero; opacity: 1;" vector-effect="non-scaling-stroke"  transform=" translate(-480, -62.73)" d="M 0 108 L 7 107.8 C 14 107.7 28 107.3 41.8 106.5 C 55.7 105.7 69.3 104.3 83.2 103 C 97 101.7 111 100.3 125 99.2 C 139 98 153 97 167 99.7 C 181 102.3 195 108.7 208.8 114 C 222.7 119.3 236.3 123.7 250.2 121.7 C 264 119.7 278 111.3 292 106.7 C 306 102 320 101 334 102.5 C 348 104 362 108 375.8 112 C 389.7 116 403.3 120 417.2 122.7 C 431 125.3 445 126.7 459 124 C 473 121.3 487 114.7 501 109.8 C 515 105 529 102 542.8 101.2 C 556.7 100.3 570.3 101.7 584.2 105.7 C 598 109.7 612 116.3 626 117.5 C 640 118.7 654 114.3 668 115 C 682 115.7 696 121.3 709.8 119.2 C 723.7 117 737.3 107 751.2 102.7 C 765 98.3 779 99.7 793 104.5 C 807 109.3 821 117.7 835 121.2 C 849 124.7 863 123.3 876.8 122.2 C 890.7 121 904.3 120 918.2 120.5 C 932 121 946 123 953 124 L 960 125 L 960 0 L 953 0 C 946 0 932 0 918.2 0 C 904.3 0 890.7 0 876.8 0 C 863 0 849 0 835 0 C 821 0 807 0 793 0 C 779 0 765 0 751.2 0 C 737.3 0 723.7 0 709.8 0 C 696 0 682 0 668 0 C 654 0 640 0 626 0 C 612 0 598 0 584.2 0 C 570.3 0 556.7 0 542.8 0 C 529 0 515 0 501 0 C 487 0 473 0 459 0 C 445 0 431 0 417.2 0 C 403.3 0 389.7 0 375.8 0 C 362 0 348 0 334 0 C 320 0 306 0 292 0 C 278 0 264 0 250.2 0 C 236.3 0 222.7 0 208.8 0 C 195 0 181 0 167 0 C 153 0 139 0 125 0 C 111 0 97 0 83.2 0 C 69.3 0 55.7 0 41.8 0 C 28 0 14 0 7 0 L 0 0 Z" stroke-linecap="round" />
</g>
		<g transform="matrix(1 0 0 1 0 -21.18)"  >
<path style="stroke: none; stroke-width: 1; stroke-dasharray: none; stroke-linecap: butt; stroke-dashoffset: 0; stroke-linejoin: miter; stroke-miterlimit: 4; fill: rgb(243,101,103); fill-rule: nonzero; opacity: 1;" vector-effect="non-scaling-stroke"  transform=" translate(-480, -53.82)" d="M 0 89 L 7 92.2 C 14 95.3 28 101.7 41.8 104.8 C 55.7 108 69.3 108 83.2 107.2 C 97 106.3 111 104.7 125 103.7 C 139 102.7 153 102.3 167 99.7 C 181 97 195 92 208.8 91 C 222.7 90 236.3 93 250.2 95.2 C 264 97.3 278 98.7 292 100.8 C 306 103 320 106 334 104.3 C 348 102.7 362 96.3 375.8 92.5 C 389.7 88.7 403.3 87.3 417.2 87.3 C 431 87.3 445 88.7 459 92.2 C 473 95.7 487 101.3 501 103.7 C 515 106 529 105 542.8 102 C 556.7 99 570.3 94 584.2 92.5 C 598 91 612 93 626 93 C 640 93 654 91 668 89.2 C 682 87.3 696 85.7 709.8 87.5 C 723.7 89.3 737.3 94.7 751.2 97.8 C 765 101 779 102 793 102.2 C 807 102.3 821 101.7 835 98.2 C 849 94.7 863 88.3 876.8 85.2 C 890.7 82 904.3 82 918.2 84.3 C 932 86.7 946 91.3 953 93.7 L 960 96 L 960 0 L 953 0 C 946 0 932 0 918.2 0 C 904.3 0 890.7 0 876.8 0 C 863 0 849 0 835 0 C 821 0 807 0 793 0 C 779 0 765 0 751.2 0 C 737.3 0 723.7 0 709.8 0 C 696 0 682 0 668 0 C 654 0 640 0 626 0 C 612 0 598 0 584.2 0 C 570.3 0 556.7 0 542.8 0 C 529 0 515 0 501 0 C 487 0 473 0 459 0 C 445 0 431 0 417.2 0 C 403.3 0 389.7 0 375.8 0 C 362 0 348 0 334 0 C 320 0 306 0 292 0 C 278 0 264 0 250.2 0 C 236.3 0 222.7 0 208.8 0 C 195 0 181 0 167 0 C 153 0 139 0 125 0 C 111 0 97 0 83.2 0 C 69.3 0 55.7 0 41.8 0 C 28 0 14 0 7 0 L 0 0 Z" stroke-linecap="round" />
</g>
		<g transform="matrix(1 0 0 1 0 -30.38)"  >
<path style="stroke: none; stroke-width: 1; stroke-dasharray: none; stroke-linecap: butt; stroke-dashoffset: 0; stroke-linejoin: miter; stroke-miterlimit: 4; fill: rgb(235,89,103); fill-rule: nonzero; opacity: 1;" vector-effect="non-scaling-stroke"  transform=" translate(-480, -44.62)" d="M 0 75 L 7 77.3 C 14 79.7 28 84.3 41.8 84.3 C 55.7 84.3 69.3 79.7 83.2 76.2 C 97 72.7 111 70.3 125 70.3 C 139 70.3 153 72.7 167 73.5 C 181 74.3 195 73.7 208.8 72.8 C 222.7 72 236.3 71 250.2 72.8 C 264 74.7 278 79.3 292 79 C 306 78.7 320 73.3 334 73.5 C 348 73.7 362 79.3 375.8 83.2 C 389.7 87 403.3 89 417.2 88.8 C 431 88.7 445 86.3 459 86.2 C 473 86 487 88 501 88.8 C 515 89.7 529 89.3 542.8 87 C 556.7 84.7 570.3 80.3 584.2 79.8 C 598 79.3 612 82.7 626 83 C 640 83.3 654 80.7 668 81.8 C 682 83 696 88 709.8 87.5 C 723.7 87 737.3 81 751.2 78.8 C 765 76.7 779 78.3 793 77.8 C 807 77.3 821 74.7 835 75.8 C 849 77 863 82 876.8 83 C 890.7 84 904.3 81 918.2 80 C 932 79 946 80 953 80.5 L 960 81 L 960 0 L 953 0 C 946 0 932 0 918.2 0 C 904.3 0 890.7 0 876.8 0 C 863 0 849 0 835 0 C 821 0 807 0 793 0 C 779 0 765 0 751.2 0 C 737.3 0 723.7 0 709.8 0 C 696 0 682 0 668 0 C 654 0 640 0 626 0 C 612 0 598 0 584.2 0 C 570.3 0 556.7 0 542.8 0 C 529 0 515 0 501 0 C 487 0 473 0 459 0 C 445 0 431 0 417.2 0 C 403.3 0 389.7 0 375.8 0 C 362 0 348 0 334 0 C 320 0 306 0 292 0 C 278 0 264 0 250.2 0 C 236.3 0 222.7 0 208.8 0 C 195 0 181 0 167 0 C 153 0 139 0 125 0 C 111 0 97 0 83.2 0 C 69.3 0 55.7 0 41.8 0 C 28 0 14 0 7 0 L 0 0 Z" stroke-linecap="round" />
</g>
		<g transform="matrix(1 0 0 1 0 -38.14)"  >
<path style="stroke: none; stroke-width: 1; stroke-dasharray: none; stroke-linecap: butt; stroke-dashoffset: 0; stroke-linejoin: miter; stroke-miterlimit: 4; fill: rgb(227,76,103); fill-rule: nonzero; opacity: 1;" vector-effect="non-scaling-stroke"  transform=" translate(-480, -36.86)" d="M 0 54 L 7 58.2 C 14 62.3 28 70.7 41.8 73 C 55.7 75.3 69.3 71.7 83.2 68.3 C 97 65 111 62 125 61.8 C 139 61.7 153 64.3 167 65 C 181 65.7 195 64.3 208.8 63.3 C 222.7 62.3 236.3 61.7 250.2 63.7 C 264 65.7 278 70.3 292 71.3 C 306 72.3 320 69.7 334 66.5 C 348 63.3 362 59.7 375.8 57.7 C 389.7 55.7 403.3 55.3 417.2 56.3 C 431 57.3 445 59.7 459 62.5 C 473 65.3 487 68.7 501 69.2 C 515 69.7 529 67.3 542.8 65.7 C 556.7 64 570.3 63 584.2 64.2 C 598 65.3 612 68.7 626 68.2 C 640 67.7 654 63.3 668 62 C 682 60.7 696 62.3 709.8 62 C 723.7 61.7 737.3 59.3 751.2 58.2 C 765 57 779 57 793 58.2 C 807 59.3 821 61.7 835 62.2 C 849 62.7 863 61.3 876.8 61.2 C 890.7 61 904.3 62 918.2 60.8 C 932 59.7 946 56.3 953 54.7 L 960 53 L 960 0 L 953 0 C 946 0 932 0 918.2 0 C 904.3 0 890.7 0 876.8 0 C 863 0 849 0 835 0 C 821 0 807 0 793 0 C 779 0 765 0 751.2 0 C 737.3 0 723.7 0 709.8 0 C 696 0 682 0 668 0 C 654 0 640 0 626 0 C 612 0 598 0 584.2 0 C 570.3 0 556.7 0 542.8 0 C 529 0 515 0 501 0 C 487 0 473 0 459 0 C 445 0 431 0 417.2 0 C 403.3 0 389.7 0 375.8 0 C 362 0 348 0 334 0 C 320 0 306 0 292 0 C 278 0 264 0 250.2 0 C 236.3 0 222.7 0 208.8 0 C 195 0 181 0 167 0 C 153 0 139 0 125 0 C 111 0 97 0 83.2 0 C 69.3 0 55.7 0 41.8 0 C 28 0 14 0 7 0 L 0 0 Z" stroke-linecap="round" />
</g>
		<g transform="matrix(1 0 0 1 0 -44.98)"  >
<path style="stroke: none; stroke-width: 1; stroke-dasharray: none; stroke-linecap: butt; stroke-dashoffset: 0; stroke-linejoin: miter; stroke-miterlimit: 4; fill: rgb(218,63,103); fill-rule: nonzero; opacity: 1;" vector-effect="non-scaling-stroke"  transform=" translate(-480, -30.02)" d="M 0 45 L 7 45.5 C 14 46 28 47 41.8 48.8 C 55.7 50.7 69.3 53.3 83.2 54 C 97 54.7 111 53.3 125 52.5 C 139 51.7 153 51.3 167 50.2 C 181 49 195 47 208.8 47.3 C 222.7 47.7 236.3 50.3 250.2 52.5 C 264 54.7 278 56.3 292 54.5 C 306 52.7 320 47.3 334 44.5 C 348 41.7 362 41.3 375.8 41.8 C 389.7 42.3 403.3 43.7 417.2 45.7 C 431 47.7 445 50.3 459 49.5 C 473 48.7 487 44.3 501 42.2 C 515 40 529 40 542.8 41.3 C 556.7 42.7 570.3 45.3 584.2 48.8 C 598 52.3 612 56.7 626 55.3 C 640 54 654 47 668 45.7 C 682 44.3 696 48.7 709.8 51.5 C 723.7 54.3 737.3 55.7 751.2 56.5 C 765 57.3 779 57.7 793 58.5 C 807 59.3 821 60.7 835 59.7 C 849 58.7 863 55.3 876.8 51.3 C 890.7 47.3 904.3 42.7 918.2 40.3 C 932 38 946 38 953 38 L 960 38 L 960 0 L 953 0 C 946 0 932 0 918.2 0 C 904.3 0 890.7 0 876.8 0 C 863 0 849 0 835 0 C 821 0 807 0 793 0 C 779 0 765 0 751.2 0 C 737.3 0 723.7 0 709.8 0 C 696 0 682 0 668 0 C 654 0 640 0 626 0 C 612 0 598 0 584.2 0 C 570.3 0 556.7 0 542.8 0 C 529 0 515 0 501 0 C 487 0 473 0 459 0 C 445 0 431 0 417.2 0 C 403.3 0 389.7 0 375.8 0 C 362 0 348 0 334 0 C 320 0 306 0 292 0 C 278 0 264 0 250.2 0 C 236.3 0 222.7 0 208.8 0 C 195 0 181 0 167 0 C 153 0 139 0 125 0 C 111 0 97 0 83.2 0 C 69.3 0 55.7 0 41.8 0 C 28 0 14 0 7 0 L 0 0 Z" stroke-linecap="round" />
</g>
		<g transform="matrix(1 0 0 1 0 -54.49)"  >
<path style="stroke: none; stroke-width: 1; stroke-dasharray: none; stroke-linecap: butt; stroke-dashoffset: 0; stroke-linejoin: miter; stroke-miterlimit: 4; fill: rgb(208,50,103); fill-rule: nonzero; opacity: 1;" vector-effect="non-scaling-stroke"  transform=" translate(-480, -20.51)" d="M 0 26 L 7 27.7 C 14 29.3 28 32.7 41.8 32.3 C 55.7 32 69.3 28 83.2 27.5 C 97 27 111 30 125 30 C 139 30 153 27 167 27.3 C 181 27.7 195 31.3 208.8 32.5 C 222.7 33.7 236.3 32.3 250.2 33 C 264 33.7 278 36.3 292 36.3 C 306 36.3 320 33.7 334 31.8 C 348 30 362 29 375.8 29.2 C 389.7 29.3 403.3 30.7 417.2 32.3 C 431 34 445 36 459 38 C 473 40 487 42 501 40.5 C 515 39 529 34 542.8 30.8 C 556.7 27.7 570.3 26.3 584.2 27.2 C 598 28 612 31 626 32.7 C 640 34.3 654 34.7 668 35.8 C 682 37 696 39 709.8 37.3 C 723.7 35.7 737.3 30.3 751.2 27.5 C 765 24.7 779 24.3 793 24.2 C 807 24 821 24 835 24.2 C 849 24.3 863 24.7 876.8 26 C 890.7 27.3 904.3 29.7 918.2 31.3 C 932 33 946 34 953 34.5 L 960 35 L 960 0 L 953 0 C 946 0 932 0 918.2 0 C 904.3 0 890.7 0 876.8 0 C 863 0 849 0 835 0 C 821 0 807 0 793 0 C 779 0 765 0 751.2 0 C 737.3 0 723.7 0 709.8 0 C 696 0 682 0 668 0 C 654 0 640 0 626 0 C 612 0 598 0 584.2 0 C 570.3 0 556.7 0 542.8 0 C 529 0 515 0 501 0 C 487 0 473 0 459 0 C 445 0 431 0 417.2 0 C 403.3 0 389.7 0 375.8 0 C 362 0 348 0 334 0 C 320 0 306 0 292 0 C 278 0 264 0 250.2 0 C 236.3 0 222.7 0 208.8 0 C 195 0 181 0 167 0 C 153 0 139 0 125 0 C 111 0 97 0 83.2 0 C 69.3 0 55.7 0 41.8 0 C 28 0 14 0 7 0 L 0 0 Z" stroke-linecap="round" />
</g>
		<g transform="matrix(1 0 0 1 0 -62.31)"  >
<path style="stroke: none; stroke-width: 1; stroke-dasharray: none; stroke-linecap: butt; stroke-dashoffset: 0; stroke-linejoin: miter; stroke-miterlimit: 4; fill: rgb(198,35,104); fill-rule: nonzero; opacity: 1;" vector-effect="non-scaling-stroke"  transform=" translate(-480, -12.69)" d="M 0 9 L 7 11 C 14 13 28 17 41.8 19.2 C 55.7 21.3 69.3 21.7 83.2 20.2 C 97 18.7 111 15.3 125 15.7 C 139 16 153 20 167 21 C 181 22 195 20 208.8 18.5 C 222.7 17 236.3 16 250.2 16.7 C 264 17.3 278 19.7 292 19.3 C 306 19 320 16 334 14.5 C 348 13 362 13 375.8 15 C 389.7 17 403.3 21 417.2 22 C 431 23 445 21 459 20.5 C 473 20 487 21 501 20.3 C 515 19.7 529 17.3 542.8 17.7 C 556.7 18 570.3 21 584.2 20.2 C 598 19.3 612 14.7 626 15 C 640 15.3 654 20.7 668 21.7 C 682 22.7 696 19.3 709.8 16.7 C 723.7 14 737.3 12 751.2 12.7 C 765 13.3 779 16.7 793 16.5 C 807 16.3 821 12.7 835 13.7 C 849 14.7 863 20.3 876.8 23.2 C 890.7 26 904.3 26 918.2 23.8 C 932 21.7 946 17.3 953 15.2 L 960 13 L 960 0 L 953 0 C 946 0 932 0 918.2 0 C 904.3 0 890.7 0 876.8 0 C 863 0 849 0 835 0 C 821 0 807 0 793 0 C 779 0 765 0 751.2 0 C 737.3 0 723.7 0 709.8 0 C 696 0 682 0 668 0 C 654 0 640 0 626 0 C 612 0 598 0 584.2 0 C 570.3 0 556.7 0 542.8 0 C 529 0 515 0 501 0 C 487 0 473 0 459 0 C 445 0 431 0 417.2 0 C 403.3 0 389.7 0 375.8 0 C 362 0 348 0 334 0 C 320 0 306 0 292 0 C 278 0 264 0 250.2 0 C 236.3 0 222.7 0 208.8 0 C 195 0 181 0 167 0 C 153 0 139 0 125 0 C 111 0 97 0 83.2 0 C 69.3 0 55.7 0 41.8 0 C 28 0 14 0 7 0 L 0 0 Z" stroke-linecap="round" />
</g>
</g>
</g>
<g transform="matrix(1 0 0 1 540 540)"  >
<g style="" vector-effect="non-scaling-stroke"   >
		<g transform="matrix(1 0 0 1 0 0)"  >
<rect style="stroke: none; stroke-width: 1; stroke-dasharray: none; stroke-linecap: butt; stroke-dashoffset: 0; stroke-linejoin: miter; stroke-miterlimit: 4; fill: rgb(250,114,104); fill-rule: nonzero; opacity: 1;" vector-effect="non-scaling-stroke"  x="-960" y="-540" rx="0" ry="0" width="1920" height="1080" />
</g>
		<g transform="matrix(1 0 0 1 0 -259.21)"  >
<path style="stroke: none; stroke-width: 1; stroke-dasharray: none; stroke-linecap: butt; stroke-dashoffset: 0; stroke-linejoin: miter; stroke-miterlimit: 4; fill: rgb(250,114,104); fill-rule: nonzero; opacity: 1;" vector-effect="non-scaling-stroke"  transform=" translate(-960, -280.79)" d="M 0 538 L 45.7 544.5 C 91.3 551 182.7 564 274.2 561.2 C 365.7 558.3 457.3 539.7 548.8 511 C 640.3 482.3 731.7 443.7 823 425.2 C 914.3 406.7 1005.7 408.3 1097 412.3 C 1188.3 416.3 1279.7 422.7 1371.2 431.8 C 1462.7 441 1554.3 453 1645.8 469.8 C 1737.3 486.7 1828.7 508.3 1874.3 519.2 L 1920 530 L 1920 0 L 1874.3 0 C 1828.7 0 1737.3 0 1645.8 0 C 1554.3 0 1462.7 0 1371.2 0 C 1279.7 0 1188.3 0 1097 0 C 1005.7 0 914.3 0 823 0 C 731.7 0 640.3 0 548.8 0 C 457.3 0 365.7 0 274.2 0 C 182.7 0 91.3 0 45.7 0 L 0 0 Z" stroke-linecap="round" />
</g>
		<g transform="matrix(1 0 0 1 0 -321.07)"  >
<path style="stroke: none; stroke-width: 1; stroke-dasharray: none; stroke-linecap: butt; stroke-dashoffset: 0; stroke-linejoin: miter; stroke-miterlimit: 4; fill: rgb(246,107,104); fill-rule: nonzero; opacity: 1;" vector-effect="non-scaling-stroke"  transform=" translate(-960, -218.93)" d="M 0 429 L 45.7 431.8 C 91.3 434.7 182.7 440.3 274.2 436.7 C 365.7 433 457.3 420 548.8 406.3 C 640.3 392.7 731.7 378.3 823 375 C 914.3 371.7 1005.7 379.3 1097 380.5 C 1188.3 381.7 1279.7 376.3 1371.2 373.3 C 1462.7 370.3 1554.3 369.7 1645.8 367.7 C 1737.3 365.7 1828.7 362.3 1874.3 360.7 L 1920 359 L 1920 0 L 1874.3 0 C 1828.7 0 1737.3 0 1645.8 0 C 1554.3 0 1462.7 0 1371.2 0 C 1279.7 0 1188.3 0 1097 0 C 1005.7 0 914.3 0 823 0 C 731.7 0 640.3 0 548.8 0 C 457.3 0 365.7 0 274.2 0 C 182.7 0 91.3 0 45.7 0 L 0 0 Z" stroke-linecap="round" />
</g>
		<g transform="matrix(1 0 0 1 0 -320.4)"  >
<path style="stroke: none; stroke-width: 1; stroke-dasharray: none; stroke-linecap: butt; stroke-dashoffset: 0; stroke-linejoin: miter; stroke-miterlimit: 4; fill: rgb(242,100,103); fill-rule: nonzero; opacity: 1;" vector-effect="non-scaling-stroke"  transform=" translate(-960, -219.6)" d="M 0 423 L 45.7 412.2 C 91.3 401.3 182.7 379.7 274.2 377 C 365.7 374.3 457.3 390.7 548.8 403.5 C 640.3 416.3 731.7 425.7 823 417.3 C 914.3 409 1005.7 383 1097 390.5 C 1188.3 398 1279.7 439 1371.2 439.2 C 1462.7 439.3 1554.3 398.7 1645.8 390.3 C 1737.3 382 1828.7 406 1874.3 418 L 1920 430 L 1920 0 L 1874.3 0 C 1828.7 0 1737.3 0 1645.8 0 C 1554.3 0 1462.7 0 1371.2 0 C 1279.7 0 1188.3 0 1097 0 C 1005.7 0 914.3 0 823 0 C 731.7 0 640.3 0 548.8 0 C 457.3 0 365.7 0 274.2 0 C 182.7 0 91.3 0 45.7 0 L 0 0 Z" stroke-linecap="round" />
</g>
		<g transform="matrix(1 0 0 1 0 -331.5)"  >
<path style="stroke: none; stroke-width: 1; stroke-dasharray: none; stroke-linecap: butt; stroke-dashoffset: 0; stroke-linejoin: miter; stroke-miterlimit: 4; fill: rgb(238,93,103); fill-rule: nonzero; opacity: 1;" vector-effect="non-scaling-stroke"  transform=" translate(-960, -208.5)" d="M 0 332 L 45.7 337.2 C 91.3 342.3 182.7 352.7 274.2 355.3 C 365.7 358 457.3 353 548.8 345 C 640.3 337 731.7 326 823 321.3 C 914.3 316.7 1005.7 318.3 1097 322.7 C 1188.3 327 1279.7 334 1371.2 331 C 1462.7 328 1554.3 315 1645.8 327.7 C 1737.3 340.3 1828.7 378.7 1874.3 397.8 L 1920 417 L 1920 0 L 1874.3 0 C 1828.7 0 1737.3 0 1645.8 0 C 1554.3 0 1462.7 0 1371.2 0 C 1279.7 0 1188.3 0 1097 0 C 1005.7 0 914.3 0 823 0 C 731.7 0 640.3 0 548.8 0 C 457.3 0 365.7 0 274.2 0 C 182.7 0 91.3 0 45.7 0 L 0 0 Z" stroke-linecap="round" />
</g>
		<g transform="matrix(1 0 0 1 0 -350.62)"  >
<path style="stroke: none; stroke-width: 1; stroke-dasharray: none; stroke-linecap: butt; stroke-dashoffset: 0; stroke-linejoin: miter; stroke-miterlimit: 4; fill: rgb(234,86,103); fill-rule: nonzero; opacity: 1;" vector-effect="non-scaling-stroke"  transform=" translate(-960, -189.38)" d="M 0 271 L 45.7 270.8 C 91.3 270.7 182.7 270.3 274.2 284.2 C 365.7 298 457.3 326 548.8 345.7 C 640.3 365.3 731.7 376.7 823 378.5 C 914.3 380.3 1005.7 372.7 1097 364.3 C 1188.3 356 1279.7 347 1371.2 333.2 C 1462.7 319.3 1554.3 300.7 1645.8 296.8 C 1737.3 293 1828.7 304 1874.3 309.5 L 1920 315 L 1920 0 L 1874.3 0 C 1828.7 0 1737.3 0 1645.8 0 C 1554.3 0 1462.7 0 1371.2 0 C 1279.7 0 1188.3 0 1097 0 C 1005.7 0 914.3 0 823 0 C 731.7 0 640.3 0 548.8 0 C 457.3 0 365.7 0 274.2 0 C 182.7 0 91.3 0 45.7 0 L 0 0 Z" stroke-linecap="round" />
</g>
		<g transform="matrix(1 0 0 1 0 -370.45)"  >
<path style="stroke: none; stroke-width: 1; stroke-dasharray: none; stroke-linecap: butt; stroke-dashoffset: 0; stroke-linejoin: miter; stroke-miterlimit: 4; fill: rgb(229,79,103); fill-rule: nonzero; opacity: 1;" vector-effect="non-scaling-stroke"  transform=" translate(-960, -169.55)" d="M 0 325 L 45.7 322.2 C 91.3 319.3 182.7 313.7 274.2 317.3 C 365.7 321 457.3 334 548.8 337.8 C 640.3 341.7 731.7 336.3 823 328.5 C 914.3 320.7 1005.7 310.3 1097 301 C 1188.3 291.7 1279.7 283.3 1371.2 288.7 C 1462.7 294 1554.3 313 1645.8 308.7 C 1737.3 304.3 1828.7 276.7 1874.3 262.8 L 1920 249 L 1920 0 L 1874.3 0 C 1828.7 0 1737.3 0 1645.8 0 C 1554.3 0 1462.7 0 1371.2 0 C 1279.7 0 1188.3 0 1097 0 C 1005.7 0 914.3 0 823 0 C 731.7 0 640.3 0 548.8 0 C 457.3 0 365.7 0 274.2 0 C 182.7 0 91.3 0 45.7 0 L 0 0 Z" stroke-linecap="round" />
</g>
		<g transform="matrix(1 0 0 1 0 -402.12)"  >
<path style="stroke: none; stroke-width: 1; stroke-dasharray: none; stroke-linecap: butt; stroke-dashoffset: 0; stroke-linejoin: miter; stroke-miterlimit: 4; fill: rgb(225,72,103); fill-rule: nonzero; opacity: 1;" vector-effect="non-scaling-stroke"  transform=" translate(-960, -137.88)" d="M 0 208 L 45.7 213.3 C 91.3 218.7 182.7 229.3 274.2 229.8 C 365.7 230.3 457.3 220.7 548.8 227.3 C 640.3 234 731.7 257 823 267.7 C 914.3 278.3 1005.7 276.7 1097 272.7 C 1188.3 268.7 1279.7 262.3 1371.2 251.7 C 1462.7 241 1554.3 226 1645.8 222.2 C 1737.3 218.3 1828.7 225.7 1874.3 229.3 L 1920 233 L 1920 0 L 1874.3 0 C 1828.7 0 1737.3 0 1645.8 0 C 1554.3 0 1462.7 0 1371.2 0 C 1279.7 0 1188.3 0 1097 0 C 1005.7 0 914.3 0 823 0 C 731.7 0 640.3 0 548.8 0 C 457.3 0 365.7 0 274.2 0 C 182.7 0 91.3 0 45.7 0 L 0 0 Z" stroke-linecap="round" />
</g>
		<g transform="matrix(1 0 0 1 0 -413.04)"  >
<path style="stroke: none; stroke-width: 1; stroke-dasharray: none; stroke-linecap: butt; stroke-dashoffset: 0; stroke-linejoin: miter; stroke-miterlimit: 4; fill: rgb(220,65,103); fill-rule: nonzero; opacity: 1;" vector-effect="non-scaling-stroke"  transform=" translate(-960, -126.96)" d="M 0 194 L 45.7 206 C 91.3 218 182.7 242 274.2 250.3 C 365.7 258.7 457.3 251.3 548.8 240.5 C 640.3 229.7 731.7 215.3 823 206 C 914.3 196.7 1005.7 192.3 1097 196.7 C 1188.3 201 1279.7 214 1371.2 213.7 C 1462.7 213.3 1554.3 199.7 1645.8 197.3 C 1737.3 195 1828.7 204 1874.3 208.5 L 1920 213 L 1920 0 L 1874.3 0 C 1828.7 0 1737.3 0 1645.8 0 C 1554.3 0 1462.7 0 1371.2 0 C 1279.7 0 1188.3 0 1097 0 C 1005.7 0 914.3 0 823 0 C 731.7 0 640.3 0 548.8 0 C 457.3 0 365.7 0 274.2 0 C 182.7 0 91.3 0 45.7 0 L 0 0 Z" stroke-linecap="round" />
</g>
		<g transform="matrix(1 0 0 1 0 -428.5)"  >
<path style="stroke: none; stroke-width: 1; stroke-dasharray: none; stroke-linecap: butt; stroke-dashoffset: 0; stroke-linejoin: miter; stroke-miterlimit: 4; fill: rgb(215,58,103); fill-rule: nonzero; opacity: 1;" vector-effect="non-scaling-stroke"  transform=" translate(-960, -111.5)" d="M 0 223 L 45.7 211.3 C 91.3 199.7 182.7 176.3 274.2 174.8 C 365.7 173.3 457.3 193.7 548.8 201.3 C 640.3 209 731.7 204 823 199.2 C 914.3 194.3 1005.7 189.7 1097 184 C 1188.3 178.3 1279.7 171.7 1371.2 171.5 C 1462.7 171.3 1554.3 177.7 1645.8 180 C 1737.3 182.3 1828.7 180.7 1874.3 179.8 L 1920 179 L 1920 0 L 1874.3 0 C 1828.7 0 1737.3 0 1645.8 0 C 1554.3 0 1462.7 0 1371.2 0 C 1279.7 0 1188.3 0 1097 0 C 1005.7 0 914.3 0 823 0 C 731.7 0 640.3 0 548.8 0 C 457.3 0 365.7 0 274.2 0 C 182.7 0 91.3 0 45.7 0 L 0 0 Z" stroke-linecap="round" />
</g>
		<g transform="matrix(1 0 0 1 0 -451.5)"  >
<path style="stroke: none; stroke-width: 1; stroke-dasharray: none; stroke-linecap: butt; stroke-dashoffset: 0; stroke-linejoin: miter; stroke-miterlimit: 4; fill: rgb(209,51,103); fill-rule: nonzero; opacity: 1;" vector-effect="non-scaling-stroke"  transform=" translate(-960, -88.5)" d="M 0 177 L 45.7 175.2 C 91.3 173.3 182.7 169.7 274.2 166 C 365.7 162.3 457.3 158.7 548.8 156.8 C 640.3 155 731.7 155 823 154.3 C 914.3 153.7 1005.7 152.3 1097 151 C 1188.3 149.7 1279.7 148.3 1371.2 149 C 1462.7 149.7 1554.3 152.3 1645.8 149 C 1737.3 145.7 1828.7 136.3 1874.3 131.7 L 1920 127 L 1920 0 L 1874.3 0 C 1828.7 0 1737.3 0 1645.8 0 C 1554.3 0 1462.7 0 1371.2 0 C 1279.7 0 1188.3 0 1097 0 C 1005.7 0 914.3 0 823 0 C 731.7 0 640.3 0 548.8 0 C 457.3 0 365.7 0 274.2 0 C 182.7 0 91.3 0 45.7 0 L 0 0 Z" stroke-linecap="round" />
</g>
		<g transform="matrix(1 0 0 1 0 -474)"  >
<path style="stroke: none; stroke-width: 1; stroke-dasharray: none; stroke-linecap: butt; stroke-dashoffset: 0; stroke-linejoin: miter; stroke-miterlimit: 4; fill: rgb(204,43,104); fill-rule: nonzero; opacity: 1;" vector-effect="non-scaling-stroke"  transform=" translate(-960, -66)" d="M 0 100 L 45.7 98.8 C 91.3 97.7 182.7 95.3 274.2 99.8 C 365.7 104.3 457.3 115.7 548.8 115.3 C 640.3 115 731.7 103 823 97.2 C 914.3 91.3 1005.7 91.7 1097 95.7 C 1188.3 99.7 1279.7 107.3 1371.2 109.3 C 1462.7 111.3 1554.3 107.7 1645.8 110.5 C 1737.3 113.3 1828.7 122.7 1874.3 127.3 L 1920 132 L 1920 0 L 1874.3 0 C 1828.7 0 1737.3 0 1645.8 0 C 1554.3 0 1462.7 0 1371.2 0 C 1279.7 0 1188.3 0 1097 0 C 1005.7 0 914.3 0 823 0 C 731.7 0 640.3 0 548.8 0 C 457.3 0 365.7 0 274.2 0 C 182.7 0 91.3 0 45.7 0 L 0 0 Z" stroke-linecap="round" />
</g>
		<g transform="matrix(1 0 0 1 0 -499.05)"  >
<path style="stroke: none; stroke-width: 1; stroke-dasharray: none; stroke-linecap: butt; stroke-dashoffset: 0; stroke-linejoin: miter; stroke-miterlimit: 4; fill: rgb(198,35,104); fill-rule: nonzero; opacity: 1;" vector-effect="non-scaling-stroke"  transform=" translate(-960, -40.95)" d="M 0 66 L 45.7 67.8 C 91.3 69.7 182.7 73.3 274.2 75.8 C 365.7 78.3 457.3 79.7 548.8 80.8 C 640.3 82 731.7 83 823 79.3 C 914.3 75.7 1005.7 67.3 1097 65.7 C 1188.3 64 1279.7 69 1371.2 70.3 C 1462.7 71.7 1554.3 69.3 1645.8 69.2 C 1737.3 69 1828.7 71 1874.3 72 L 1920 73 L 1920 0 L 1874.3 0 C 1828.7 0 1737.3 0 1645.8 0 C 1554.3 0 1462.7 0 1371.2 0 C 1279.7 0 1188.3 0 1097 0 C 1005.7 0 914.3 0 823 0 C 731.7 0 640.3 0 548.8 0 C 457.3 0 365.7 0 274.2 0 C 182.7 0 91.3 0 45.7 0 L 0 0 Z" stroke-linecap="round" />
</g>
</g>
</g>
<g transform="matrix(1.14 0 0 0.49 540 105.91)"  >
<g style="" vector-effect="non-scaling-stroke"   >
		<g transform="matrix(1 0 0 1 0 0)"  >
<rect style="stroke: none; stroke-width: 1; stroke-dasharray: none; stroke-linecap: butt; stroke-dashoffset: 0; stroke-linejoin: miter; stroke-miterlimit: 4; fill: rgb(250,114,104); fill-rule: nonzero; opacity: 1;" vector-effect="non-scaling-stroke"  x="-480" y="-75" rx="0" ry="0" width="960" height="150" />
</g>
		<g transform="matrix(1 0 0 1 0 -6.86)"  >
<path style="stroke: none; stroke-width: 1; stroke-dasharray: none; stroke-linecap: butt; stroke-dashoffset: 0; stroke-linejoin: miter; stroke-miterlimit: 4; fill: rgb(250,114,104); fill-rule: nonzero; opacity: 1;" vector-effect="non-scaling-stroke"  transform=" translate(-480, -68.14)" d="M 0 66 L 12.3 67.3 C 24.7 68.7 49.3 71.3 74 80 C 98.7 88.7 123.3 103.3 148 113.5 C 172.7 123.7 197.3 129.3 221.8 133.2 C 246.3 137 270.7 139 295.2 128.7 C 319.7 118.3 344.3 95.7 369 84.2 C 393.7 72.7 418.3 72.3 443 73.2 C 467.7 74 492.3 76 517 82 C 541.7 88 566.3 98 591 104 C 615.7 110 640.3 112 664.8 107.3 C 689.3 102.7 713.7 91.3 738.2 87.2 C 762.7 83 787.3 86 812 91.7 C 836.7 97.3 861.3 105.7 886 110.7 C 910.7 115.7 935.3 117.3 947.7 118.2 L 960 119 L 960 0 L 947.7 0 C 935.3 0 910.7 0 886 0 C 861.3 0 836.7 0 812 0 C 787.3 0 762.7 0 738.2 0 C 713.7 0 689.3 0 664.8 0 C 640.3 0 615.7 0 591 0 C 566.3 0 541.7 0 517 0 C 492.3 0 467.7 0 443 0 C 418.3 0 393.7 0 369 0 C 344.3 0 319.7 0 295.2 0 C 270.7 0 246.3 0 221.8 0 C 197.3 0 172.7 0 148 0 C 123.3 0 98.7 0 74 0 C 49.3 0 24.7 0 12.3 0 L 0 0 Z" stroke-linecap="round" />
</g>
		<g transform="matrix(1 0 0 1 0 -11.06)"  >
<path style="stroke: none; stroke-width: 1; stroke-dasharray: none; stroke-linecap: butt; stroke-dashoffset: 0; stroke-linejoin: miter; stroke-miterlimit: 4; fill: rgb(246,107,104); fill-rule: nonzero; opacity: 1;" vector-effect="non-scaling-stroke"  transform=" translate(-480, -63.94)" d="M 0 106 L 12.3 101.5 C 24.7 97 49.3 88 74 91.2 C 98.7 94.3 123.3 109.7 148 110.7 C 172.7 111.7 197.3 98.3 221.8 98.2 C 246.3 98 270.7 111 295.2 110.7 C 319.7 110.3 344.3 96.7 369 86.8 C 393.7 77 418.3 71 443 69.8 C 467.7 68.7 492.3 72.3 517 71 C 541.7 69.7 566.3 63.3 591 60.2 C 615.7 57 640.3 57 664.8 66.5 C 689.3 76 713.7 95 738.2 108.2 C 762.7 121.3 787.3 128.7 812 127.8 C 836.7 127 861.3 118 886 113.3 C 910.7 108.7 935.3 108.3 947.7 108.2 L 960 108 L 960 0 L 947.7 0 C 935.3 0 910.7 0 886 0 C 861.3 0 836.7 0 812 0 C 787.3 0 762.7 0 738.2 0 C 713.7 0 689.3 0 664.8 0 C 640.3 0 615.7 0 591 0 C 566.3 0 541.7 0 517 0 C 492.3 0 467.7 0 443 0 C 418.3 0 393.7 0 369 0 C 344.3 0 319.7 0 295.2 0 C 270.7 0 246.3 0 221.8 0 C 197.3 0 172.7 0 148 0 C 123.3 0 98.7 0 74 0 C 49.3 0 24.7 0 12.3 0 L 0 0 Z" stroke-linecap="round" />
</g>
		<g transform="matrix(1 0 0 1 0 -18.5)"  >
<path style="stroke: none; stroke-width: 1; stroke-dasharray: none; stroke-linecap: butt; stroke-dashoffset: 0; stroke-linejoin: miter; stroke-miterlimit: 4; fill: rgb(242,100,103); fill-rule: nonzero; opacity: 1;" vector-effect="non-scaling-stroke"  transform=" translate(-480, -56.5)" d="M 0 113 L 12.3 112 C 24.7 111 49.3 109 74 109.2 C 98.7 109.3 123.3 111.7 148 109.3 C 172.7 107 197.3 100 221.8 97.3 C 246.3 94.7 270.7 96.3 295.2 97.2 C 319.7 98 344.3 98 369 101 C 393.7 104 418.3 110 443 109 C 467.7 108 492.3 100 517 97.2 C 541.7 94.3 566.3 96.7 591 99 C 615.7 101.3 640.3 103.7 664.8 102.5 C 689.3 101.3 713.7 96.7 738.2 91.3 C 762.7 86 787.3 80 812 84.3 C 836.7 88.7 861.3 103.3 886 100.7 C 910.7 98 935.3 78 947.7 68 L 960 58 L 960 0 L 947.7 0 C 935.3 0 910.7 0 886 0 C 861.3 0 836.7 0 812 0 C 787.3 0 762.7 0 738.2 0 C 713.7 0 689.3 0 664.8 0 C 640.3 0 615.7 0 591 0 C 566.3 0 541.7 0 517 0 C 492.3 0 467.7 0 443 0 C 418.3 0 393.7 0 369 0 C 344.3 0 319.7 0 295.2 0 C 270.7 0 246.3 0 221.8 0 C 197.3 0 172.7 0 148 0 C 123.3 0 98.7 0 74 0 C 49.3 0 24.7 0 12.3 0 L 0 0 Z" stroke-linecap="round" />
</g>
		<g transform="matrix(1 0 0 1 0 -27.68)"  >
<path style="stroke: none; stroke-width: 1; stroke-dasharray: none; stroke-linecap: butt; stroke-dashoffset: 0; stroke-linejoin: miter; stroke-miterlimit: 4; fill: rgb(238,93,103); fill-rule: nonzero; opacity: 1;" vector-effect="non-scaling-stroke"  transform=" translate(-480, -47.32)" d="M 0 79 L 12.3 78.3 C 24.7 77.7 49.3 76.3 74 73.8 C 98.7 71.3 123.3 67.7 148 66.5 C 172.7 65.3 197.3 66.7 221.8 68.3 C 246.3 70 270.7 72 295.2 72.3 C 319.7 72.7 344.3 71.3 369 70.5 C 393.7 69.7 418.3 69.3 443 76.2 C 467.7 83 492.3 97 517 94.3 C 541.7 91.7 566.3 72.3 591 64.2 C 615.7 56 640.3 59 664.8 59.2 C 689.3 59.3 713.7 56.7 738.2 58 C 762.7 59.3 787.3 64.7 812 67.3 C 836.7 70 861.3 70 886 67.2 C 910.7 64.3 935.3 58.7 947.7 55.8 L 960 53 L 960 0 L 947.7 0 C 935.3 0 910.7 0 886 0 C 861.3 0 836.7 0 812 0 C 787.3 0 762.7 0 738.2 0 C 713.7 0 689.3 0 664.8 0 C 640.3 0 615.7 0 591 0 C 566.3 0 541.7 0 517 0 C 492.3 0 467.7 0 443 0 C 418.3 0 393.7 0 369 0 C 344.3 0 319.7 0 295.2 0 C 270.7 0 246.3 0 221.8 0 C 197.3 0 172.7 0 148 0 C 123.3 0 98.7 0 74 0 C 49.3 0 24.7 0 12.3 0 L 0 0 Z" stroke-linecap="round" />
</g>
		<g transform="matrix(1 0 0 1 0 -30.3)"  >
<path style="stroke: none; stroke-width: 1; stroke-dasharray: none; stroke-linecap: butt; stroke-dashoffset: 0; stroke-linejoin: miter; stroke-miterlimit: 4; fill: rgb(234,86,103); fill-rule: nonzero; opacity: 1;" vector-effect="non-scaling-stroke"  transform=" translate(-480, -44.7)" d="M 0 64 L 12.3 62.7 C 24.7 61.3 49.3 58.7 74 58.5 C 98.7 58.3 123.3 60.7 148 63.7 C 172.7 66.7 197.3 70.3 221.8 75.7 C 246.3 81 270.7 88 295.2 83 C 319.7 78 344.3 61 369 60.2 C 393.7 59.3 418.3 74.7 443 82.7 C 467.7 90.7 492.3 91.3 517 85.8 C 541.7 80.3 566.3 68.7 591 65.5 C 615.7 62.3 640.3 67.7 664.8 69.8 C 689.3 72 713.7 71 738.2 69.3 C 762.7 67.7 787.3 65.3 812 60.3 C 836.7 55.3 861.3 47.7 886 51.3 C 910.7 55 935.3 70 947.7 77.5 L 960 85 L 960 0 L 947.7 0 C 935.3 0 910.7 0 886 0 C 861.3 0 836.7 0 812 0 C 787.3 0 762.7 0 738.2 0 C 713.7 0 689.3 0 664.8 0 C 640.3 0 615.7 0 591 0 C 566.3 0 541.7 0 517 0 C 492.3 0 467.7 0 443 0 C 418.3 0 393.7 0 369 0 C 344.3 0 319.7 0 295.2 0 C 270.7 0 246.3 0 221.8 0 C 197.3 0 172.7 0 148 0 C 123.3 0 98.7 0 74 0 C 49.3 0 24.7 0 12.3 0 L 0 0 Z" stroke-linecap="round" />
</g>
		<g transform="matrix(1 0 0 1 0 -32.05)"  >
<path style="stroke: none; stroke-width: 1; stroke-dasharray: none; stroke-linecap: butt; stroke-dashoffset: 0; stroke-linejoin: miter; stroke-miterlimit: 4; fill: rgb(229,79,103); fill-rule: nonzero; opacity: 1;" vector-effect="non-scaling-stroke"  transform=" translate(-480, -42.95)" d="M 0 76 L 12.3 73.7 C 24.7 71.3 49.3 66.7 74 64.3 C 98.7 62 123.3 62 148 66.2 C 172.7 70.3 197.3 78.7 221.8 82.7 C 246.3 86.7 270.7 86.3 295.2 85 C 319.7 83.7 344.3 81.3 369 76.5 C 393.7 71.7 418.3 64.3 443 64.7 C 467.7 65 492.3 73 517 74.8 C 541.7 76.7 566.3 72.3 591 73.8 C 615.7 75.3 640.3 82.7 664.8 84.7 C 689.3 86.7 713.7 83.3 738.2 77.3 C 762.7 71.3 787.3 62.7 812 64.5 C 836.7 66.3 861.3 78.7 886 75.3 C 910.7 72 935.3 53 947.7 43.5 L 960 34 L 960 0 L 947.7 0 C 935.3 0 910.7 0 886 0 C 861.3 0 836.7 0 812 0 C 787.3 0 762.7 0 738.2 0 C 713.7 0 689.3 0 664.8 0 C 640.3 0 615.7 0 591 0 C 566.3 0 541.7 0 517 0 C 492.3 0 467.7 0 443 0 C 418.3 0 393.7 0 369 0 C 344.3 0 319.7 0 295.2 0 C 270.7 0 246.3 0 221.8 0 C 197.3 0 172.7 0 148 0 C 123.3 0 98.7 0 74 0 C 49.3 0 24.7 0 12.3 0 L 0 0 Z" stroke-linecap="round" />
</g>
		<g transform="matrix(1 0 0 1 0 -39.5)"  >
<path style="stroke: none; stroke-width: 1; stroke-dasharray: none; stroke-linecap: butt; stroke-dashoffset: 0; stroke-linejoin: miter; stroke-miterlimit: 4; fill: rgb(225,72,103); fill-rule: nonzero; opacity: 1;" vector-effect="non-scaling-stroke"  transform=" translate(-480, -35.5)" d="M 0 36 L 12.3 34.8 C 24.7 33.7 49.3 31.3 74 36.8 C 98.7 42.3 123.3 55.7 148 59.2 C 172.7 62.7 197.3 56.3 221.8 52.7 C 246.3 49 270.7 48 295.2 44.3 C 319.7 40.7 344.3 34.3 369 34 C 393.7 33.7 418.3 39.3 443 47.2 C 467.7 55 492.3 65 517 65.5 C 541.7 66 566.3 57 591 56.7 C 615.7 56.3 640.3 64.7 664.8 65.5 C 689.3 66.3 713.7 59.7 738.2 60.7 C 762.7 61.7 787.3 70.3 812 70.5 C 836.7 70.7 861.3 62.3 886 61 C 910.7 59.7 935.3 65.3 947.7 68.2 L 960 71 L 960 0 L 947.7 0 C 935.3 0 910.7 0 886 0 C 861.3 0 836.7 0 812 0 C 787.3 0 762.7 0 738.2 0 C 713.7 0 689.3 0 664.8 0 C 640.3 0 615.7 0 591 0 C 566.3 0 541.7 0 517 0 C 492.3 0 467.7 0 443 0 C 418.3 0 393.7 0 369 0 C 344.3 0 319.7 0 295.2 0 C 270.7 0 246.3 0 221.8 0 C 197.3 0 172.7 0 148 0 C 123.3 0 98.7 0 74 0 C 49.3 0 24.7 0 12.3 0 L 0 0 Z" stroke-linecap="round" />
</g>
		<g transform="matrix(1 0 0 1 0 -46.31)"  >
<path style="stroke: none; stroke-width: 1; stroke-dasharray: none; stroke-linecap: butt; stroke-dashoffset: 0; stroke-linejoin: miter; stroke-miterlimit: 4; fill: rgb(220,65,103); fill-rule: nonzero; opacity: 1;" vector-effect="non-scaling-stroke"  transform=" translate(-480, -28.69)" d="M 0 38 L 12.3 41.8 C 24.7 45.7 49.3 53.3 74 52 C 98.7 50.7 123.3 40.3 148 36.2 C 172.7 32 197.3 34 221.8 36.3 C 246.3 38.7 270.7 41.3 295.2 41.2 C 319.7 41 344.3 38 369 41.8 C 393.7 45.7 418.3 56.3 443 57.3 C 467.7 58.3 492.3 49.7 517 46 C 541.7 42.3 566.3 43.7 591 43 C 615.7 42.3 640.3 39.7 664.8 35.8 C 689.3 32 713.7 27 738.2 25.3 C 762.7 23.7 787.3 25.3 812 32.7 C 836.7 40 861.3 53 886 54 C 910.7 55 935.3 44 947.7 38.5 L 960 33 L 960 0 L 947.7 0 C 935.3 0 910.7 0 886 0 C 861.3 0 836.7 0 812 0 C 787.3 0 762.7 0 738.2 0 C 713.7 0 689.3 0 664.8 0 C 640.3 0 615.7 0 591 0 C 566.3 0 541.7 0 517 0 C 492.3 0 467.7 0 443 0 C 418.3 0 393.7 0 369 0 C 344.3 0 319.7 0 295.2 0 C 270.7 0 246.3 0 221.8 0 C 197.3 0 172.7 0 148 0 C 123.3 0 98.7 0 74 0 C 49.3 0 24.7 0 12.3 0 L 0 0 Z" stroke-linecap="round" />
</g>
		<g transform="matrix(1 0 0 1 0 -50.32)"  >
<path style="stroke: none; stroke-width: 1; stroke-dasharray: none; stroke-linecap: butt; stroke-dashoffset: 0; stroke-linejoin: miter; stroke-miterlimit: 4; fill: rgb(215,58,103); fill-rule: nonzero; opacity: 1;" vector-effect="non-scaling-stroke"  transform=" translate(-480, -24.68)" d="M 0 38 L 12.3 36.8 C 24.7 35.7 49.3 33.3 74 34.7 C 98.7 36 123.3 41 148 41 C 172.7 41 197.3 36 221.8 35.5 C 246.3 35 270.7 39 295.2 41 C 319.7 43 344.3 43 369 39.8 C 393.7 36.7 418.3 30.3 443 26.7 C 467.7 23 492.3 22 517 25 C 541.7 28 566.3 35 591 35.5 C 615.7 36 640.3 30 664.8 31.5 C 689.3 33 713.7 42 738.2 45.5 C 762.7 49 787.3 47 812 47.3 C 836.7 47.7 861.3 50.3 886 49 C 910.7 47.7 935.3 42.3 947.7 39.7 L 960 37 L 960 0 L 947.7 0 C 935.3 0 910.7 0 886 0 C 861.3 0 836.7 0 812 0 C 787.3 0 762.7 0 738.2 0 C 713.7 0 689.3 0 664.8 0 C 640.3 0 615.7 0 591 0 C 566.3 0 541.7 0 517 0 C 492.3 0 467.7 0 443 0 C 418.3 0 393.7 0 369 0 C 344.3 0 319.7 0 295.2 0 C 270.7 0 246.3 0 221.8 0 C 197.3 0 172.7 0 148 0 C 123.3 0 98.7 0 74 0 C 49.3 0 24.7 0 12.3 0 L 0 0 Z" stroke-linecap="round" />
</g>
		<g transform="matrix(1 0 0 1 0 -54.85)"  >
<path style="stroke: none; stroke-width: 1; stroke-dasharray: none; stroke-linecap: butt; stroke-dashoffset: 0; stroke-linejoin: miter; stroke-miterlimit: 4; fill: rgb(209,51,103); fill-rule: nonzero; opacity: 1;" vector-effect="non-scaling-stroke"  transform=" translate(-480, -20.15)" d="M 0 11 L 12.3 14.2 C 24.7 17.3 49.3 23.7 74 26.8 C 98.7 30 123.3 30 148 28.8 C 172.7 27.7 197.3 25.3 221.8 24.3 C 246.3 23.3 270.7 23.7 295.2 26.8 C 319.7 30 344.3 36 369 38.7 C 393.7 41.3 418.3 40.7 443 37.2 C 467.7 33.7 492.3 27.3 517 28 C 541.7 28.7 566.3 36.3 591 34.8 C 615.7 33.3 640.3 22.7 664.8 22.5 C 689.3 22.3 713.7 32.7 738.2 35 C 762.7 37.3 787.3 31.7 812 31.7 C 836.7 31.7 861.3 37.3 886 36.7 C 910.7 36 935.3 29 947.7 25.5 L 960 22 L 960 0 L 947.7 0 C 935.3 0 910.7 0 886 0 C 861.3 0 836.7 0 812 0 C 787.3 0 762.7 0 738.2 0 C 713.7 0 689.3 0 664.8 0 C 640.3 0 615.7 0 591 0 C 566.3 0 541.7 0 517 0 C 492.3 0 467.7 0 443 0 C 418.3 0 393.7 0 369 0 C 344.3 0 319.7 0 295.2 0 C 270.7 0 246.3 0 221.8 0 C 197.3 0 172.7 0 148 0 C 123.3 0 98.7 0 74 0 C 49.3 0 24.7 0 12.3 0 L 0 0 Z" stroke-linecap="round" />
</g>
		<g transform="matrix(1 0 0 1 0 -60.03)"  >
<path style="stroke: none; stroke-width: 1; stroke-dasharray: none; stroke-linecap: butt; stroke-dashoffset: 0; stroke-linejoin: miter; stroke-miterlimit: 4; fill: rgb(204,43,104); fill-rule: nonzero; opacity: 1;" vector-effect="non-scaling-stroke"  transform=" translate(-480, -14.97)" d="M 0 22 L 12.3 19.7 C 24.7 17.3 49.3 12.7 74 11.3 C 98.7 10 123.3 12 148 14.2 C 172.7 16.3 197.3 18.7 221.8 21.2 C 246.3 23.7 270.7 26.3 295.2 28.2 C 319.7 30 344.3 31 369 28.2 C 393.7 25.3 418.3 18.7 443 17.2 C 467.7 15.7 492.3 19.3 517 18.8 C 541.7 18.3 566.3 13.7 591 15.2 C 615.7 16.7 640.3 24.3 664.8 25.2 C 689.3 26 713.7 20 738.2 17 C 762.7 14 787.3 14 812 13.2 C 836.7 12.3 861.3 10.7 886 12 C 910.7 13.3 935.3 17.7 947.7 19.8 L 960 22 L 960 0 L 947.7 0 C 935.3 0 910.7 0 886 0 C 861.3 0 836.7 0 812 0 C 787.3 0 762.7 0 738.2 0 C 713.7 0 689.3 0 664.8 0 C 640.3 0 615.7 0 591 0 C 566.3 0 541.7 0 517 0 C 492.3 0 467.7 0 443 0 C 418.3 0 393.7 0 369 0 C 344.3 0 319.7 0 295.2 0 C 270.7 0 246.3 0 221.8 0 C 197.3 0 172.7 0 148 0 C 123.3 0 98.7 0 74 0 C 49.3 0 24.7 0 12.3 0 L 0 0 Z" stroke-linecap="round" />
</g>
		<g transform="matrix(1 0 0 1 0 -66.09)"  >
<path style="stroke: none; stroke-width: 1; stroke-dasharray: none; stroke-linecap: butt; stroke-dashoffset: 0; stroke-linejoin: miter; stroke-miterlimit: 4; fill: rgb(198,35,104); fill-rule: nonzero; opacity: 1;" vector-effect="non-scaling-stroke"  transform=" translate(-480, -8.91)" d="M 0 15 L 12.3 14.3 C 24.7 13.7 49.3 12.3 74 11.2 C 98.7 10 123.3 9 148 7.2 C 172.7 5.3 197.3 2.7 221.8 1.5 C 246.3 0.3 270.7 0.7 295.2 1.2 C 319.7 1.7 344.3 2.3 369 5.7 C 393.7 9 418.3 15 443 17 C 467.7 19 492.3 17 517 14.7 C 541.7 12.3 566.3 9.7 591 9.2 C 615.7 8.7 640.3 10.3 664.8 9.2 C 689.3 8 713.7 4 738.2 3.2 C 762.7 2.3 787.3 4.7 812 8.3 C 836.7 12 861.3 17 886 16.3 C 910.7 15.7 935.3 9.3 947.7 6.2 L 960 3 L 960 0 L 947.7 0 C 935.3 0 910.7 0 886 0 C 861.3 0 836.7 0 812 0 C 787.3 0 762.7 0 738.2 0 C 713.7 0 689.3 0 664.8 0 C 640.3 0 615.7 0 591 0 C 566.3 0 541.7 0 517 0 C 492.3 0 467.7 0 443 0 C 418.3 0 393.7 0 369 0 C 344.3 0 319.7 0 295.2 0 C 270.7 0 246.3 0 221.8 0 C 197.3 0 172.7 0 148 0 C 123.3 0 98.7 0 74 0 C 49.3 0 24.7 0 12.3 0 L 0 0 Z" stroke-linecap="round" />
</g>
</g>
</g>
<g transform="matrix(16.31 0 0 1.1 540 34.92)" id="12e623e9-7e0b-4d0d-bd83-d5f3762e416a"  >
<rect style="stroke: rgb(198,35,104); stroke-width: 0; stroke-dasharray: none; stroke-linecap: butt; stroke-dashoffset: 0; stroke-linejoin: miter; stroke-miterlimit: 4; fill: rgb(198,35,104); fill-rule: nonzero; opacity: 1;" vector-effect="non-scaling-stroke"  x="-33.0835" y="-33.0835" rx="0" ry="0" width="66.167" height="66.167" />
</g>
<g transform="matrix(NaN NaN NaN NaN 0 0)"  >
<g style=""   >
</g>
</g>
<g transform="matrix(NaN NaN NaN NaN 0 0)"  >
<g style=""   >
</g>
</g>
<g transform="matrix(NaN NaN NaN NaN 0 0)"  >
<g style=""   >
</g>
</g>
<g transform="matrix(NaN NaN NaN NaN 0 0)"  >
<g style=""   >
</g>
</g>
<g transform="matrix(17.61 0 0 14.05 581.14 606.94)" id="8c8084b2-bd08-499e-813f-aaca24338c0a"  >
<rect style="stroke: rgb(250,114,104); stroke-width: 0; stroke-dasharray: none; stroke-linecap: butt; stroke-dashoffset: 0; stroke-linejoin: miter; stroke-miterlimit: 4; fill: rgb(250,114,104); fill-rule: nonzero; opacity: 1;" vector-effect="non-scaling-stroke"  x="-33.0835" y="-33.0835" rx="0" ry="0" width="66.167" height="66.167" />
</g>
<g transform="matrix(NaN NaN NaN NaN 0 0)"  >
<g style=""   >
</g>
</g>
<g transform="matrix(NaN NaN NaN NaN 0 0)"  >
<g style=""   >
</g>
</g>
<g transform="matrix(NaN NaN NaN NaN 0 0)"  >
<g style=""   >
</g>
</g>
<g transform="matrix(NaN NaN NaN NaN 0 0)"  >
<g style=""   >
</g>
</g>
<g transform="matrix(NaN NaN NaN NaN 0 0)"  >
<g style=""   >
</g>
</g>
<g transform="matrix(NaN NaN NaN NaN 0 0)"  >
<g style=""   >
</g>
</g>
</svg>