<svg id="visual" viewBox="0 0 960 150" width="960" height="150" xmlns="http://www.w3.org/2000/svg" xmlns:xlink="http://www.w3.org/1999/xlink" version="1.1"><rect x="0" y="0" width="960" height="150" fill="#ffffff"></rect><path d="M0 108L7 107.8C14 107.7 28 107.3 41.8 106.5C55.7 105.7 69.3 104.3 83.2 103C97 101.7 111 100.3 125 99.2C139 98 153 97 167 99.7C181 102.3 195 108.7 208.8 114C222.7 119.3 236.3 123.7 250.2 121.7C264 119.7 278 111.3 292 106.7C306 102 320 101 334 102.5C348 104 362 108 375.8 112C389.7 116 403.3 120 417.2 122.7C431 125.3 445 126.7 459 124C473 121.3 487 114.7 501 109.8C515 105 529 102 542.8 101.2C556.7 100.3 570.3 101.7 584.2 105.7C598 109.7 612 116.3 626 117.5C640 118.7 654 114.3 668 115C682 115.7 696 121.3 709.8 119.2C723.7 117 737.3 107 751.2 102.7C765 98.3 779 99.7 793 104.5C807 109.3 821 117.7 835 121.2C849 124.7 863 123.3 876.8 122.2C890.7 121 904.3 120 918.2 120.5C932 121 946 123 953 124L960 125L960 0L953 0C946 0 932 0 918.2 0C904.3 0 890.7 0 876.8 0C863 0 849 0 835 0C821 0 807 0 793 0C779 0 765 0 751.2 0C737.3 0 723.7 0 709.8 0C696 0 682 0 668 0C654 0 640 0 626 0C612 0 598 0 584.2 0C570.3 0 556.7 0 542.8 0C529 0 515 0 501 0C487 0 473 0 459 0C445 0 431 0 417.2 0C403.3 0 389.7 0 375.8 0C362 0 348 0 334 0C320 0 306 0 292 0C278 0 264 0 250.2 0C236.3 0 222.7 0 208.8 0C195 0 181 0 167 0C153 0 139 0 125 0C111 0 97 0 83.2 0C69.3 0 55.7 0 41.8 0C28 0 14 0 7 0L0 0Z" fill="#fa7268"></path><path d="M0 89L7 92.2C14 95.3 28 101.7 41.8 104.8C55.7 108 69.3 108 83.2 107.2C97 106.3 111 104.7 125 103.7C139 102.7 153 102.3 167 99.7C181 97 195 92 208.8 91C222.7 90 236.3 93 250.2 95.2C264 97.3 278 98.7 292 100.8C306 103 320 106 334 104.3C348 102.7 362 96.3 375.8 92.5C389.7 88.7 403.3 87.3 417.2 87.3C431 87.3 445 88.7 459 92.2C473 95.7 487 101.3 501 103.7C515 106 529 105 542.8 102C556.7 99 570.3 94 584.2 92.5C598 91 612 93 626 93C640 93 654 91 668 89.2C682 87.3 696 85.7 709.8 87.5C723.7 89.3 737.3 94.7 751.2 97.8C765 101 779 102 793 102.2C807 102.3 821 101.7 835 98.2C849 94.7 863 88.3 876.8 85.2C890.7 82 904.3 82 918.2 84.3C932 86.7 946 91.3 953 93.7L960 96L960 0L953 0C946 0 932 0 918.2 0C904.3 0 890.7 0 876.8 0C863 0 849 0 835 0C821 0 807 0 793 0C779 0 765 0 751.2 0C737.3 0 723.7 0 709.8 0C696 0 682 0 668 0C654 0 640 0 626 0C612 0 598 0 584.2 0C570.3 0 556.7 0 542.8 0C529 0 515 0 501 0C487 0 473 0 459 0C445 0 431 0 417.2 0C403.3 0 389.7 0 375.8 0C362 0 348 0 334 0C320 0 306 0 292 0C278 0 264 0 250.2 0C236.3 0 222.7 0 208.8 0C195 0 181 0 167 0C153 0 139 0 125 0C111 0 97 0 83.2 0C69.3 0 55.7 0 41.8 0C28 0 14 0 7 0L0 0Z" fill="#f36567"></path><path d="M0 75L7 77.3C14 79.7 28 84.3 41.8 84.3C55.7 84.3 69.3 79.7 83.2 76.2C97 72.7 111 70.3 125 70.3C139 70.3 153 72.7 167 73.5C181 74.3 195 73.7 208.8 72.8C222.7 72 236.3 71 250.2 72.8C264 74.7 278 79.3 292 79C306 78.7 320 73.3 334 73.5C348 73.7 362 79.3 375.8 83.2C389.7 87 403.3 89 417.2 88.8C431 88.7 445 86.3 459 86.2C473 86 487 88 501 88.8C515 89.7 529 89.3 542.8 87C556.7 84.7 570.3 80.3 584.2 79.8C598 79.3 612 82.7 626 83C640 83.3 654 80.7 668 81.8C682 83 696 88 709.8 87.5C723.7 87 737.3 81 751.2 78.8C765 76.7 779 78.3 793 77.8C807 77.3 821 74.7 835 75.8C849 77 863 82 876.8 83C890.7 84 904.3 81 918.2 80C932 79 946 80 953 80.5L960 81L960 0L953 0C946 0 932 0 918.2 0C904.3 0 890.7 0 876.8 0C863 0 849 0 835 0C821 0 807 0 793 0C779 0 765 0 751.2 0C737.3 0 723.7 0 709.8 0C696 0 682 0 668 0C654 0 640 0 626 0C612 0 598 0 584.2 0C570.3 0 556.7 0 542.8 0C529 0 515 0 501 0C487 0 473 0 459 0C445 0 431 0 417.2 0C403.3 0 389.7 0 375.8 0C362 0 348 0 334 0C320 0 306 0 292 0C278 0 264 0 250.2 0C236.3 0 222.7 0 208.8 0C195 0 181 0 167 0C153 0 139 0 125 0C111 0 97 0 83.2 0C69.3 0 55.7 0 41.8 0C28 0 14 0 7 0L0 0Z" fill="#eb5967"></path><path d="M0 54L7 58.2C14 62.3 28 70.7 41.8 73C55.7 75.3 69.3 71.7 83.2 68.3C97 65 111 62 125 61.8C139 61.7 153 64.3 167 65C181 65.7 195 64.3 208.8 63.3C222.7 62.3 236.3 61.7 250.2 63.7C264 65.7 278 70.3 292 71.3C306 72.3 320 69.7 334 66.5C348 63.3 362 59.7 375.8 57.7C389.7 55.7 403.3 55.3 417.2 56.3C431 57.3 445 59.7 459 62.5C473 65.3 487 68.7 501 69.2C515 69.7 529 67.3 542.8 65.7C556.7 64 570.3 63 584.2 64.2C598 65.3 612 68.7 626 68.2C640 67.7 654 63.3 668 62C682 60.7 696 62.3 709.8 62C723.7 61.7 737.3 59.3 751.2 58.2C765 57 779 57 793 58.2C807 59.3 821 61.7 835 62.2C849 62.7 863 61.3 876.8 61.2C890.7 61 904.3 62 918.2 60.8C932 59.7 946 56.3 953 54.7L960 53L960 0L953 0C946 0 932 0 918.2 0C904.3 0 890.7 0 876.8 0C863 0 849 0 835 0C821 0 807 0 793 0C779 0 765 0 751.2 0C737.3 0 723.7 0 709.8 0C696 0 682 0 668 0C654 0 640 0 626 0C612 0 598 0 584.2 0C570.3 0 556.7 0 542.8 0C529 0 515 0 501 0C487 0 473 0 459 0C445 0 431 0 417.2 0C403.3 0 389.7 0 375.8 0C362 0 348 0 334 0C320 0 306 0 292 0C278 0 264 0 250.2 0C236.3 0 222.7 0 208.8 0C195 0 181 0 167 0C153 0 139 0 125 0C111 0 97 0 83.2 0C69.3 0 55.7 0 41.8 0C28 0 14 0 7 0L0 0Z" fill="#e34c67"></path><path d="M0 45L7 45.5C14 46 28 47 41.8 48.8C55.7 50.7 69.3 53.3 83.2 54C97 54.7 111 53.3 125 52.5C139 51.7 153 51.3 167 50.2C181 49 195 47 208.8 47.3C222.7 47.7 236.3 50.3 250.2 52.5C264 54.7 278 56.3 292 54.5C306 52.7 320 47.3 334 44.5C348 41.7 362 41.3 375.8 41.8C389.7 42.3 403.3 43.7 417.2 45.7C431 47.7 445 50.3 459 49.5C473 48.7 487 44.3 501 42.2C515 40 529 40 542.8 41.3C556.7 42.7 570.3 45.3 584.2 48.8C598 52.3 612 56.7 626 55.3C640 54 654 47 668 45.7C682 44.3 696 48.7 709.8 51.5C723.7 54.3 737.3 55.7 751.2 56.5C765 57.3 779 57.7 793 58.5C807 59.3 821 60.7 835 59.7C849 58.7 863 55.3 876.8 51.3C890.7 47.3 904.3 42.7 918.2 40.3C932 38 946 38 953 38L960 38L960 0L953 0C946 0 932 0 918.2 0C904.3 0 890.7 0 876.8 0C863 0 849 0 835 0C821 0 807 0 793 0C779 0 765 0 751.2 0C737.3 0 723.7 0 709.8 0C696 0 682 0 668 0C654 0 640 0 626 0C612 0 598 0 584.2 0C570.3 0 556.7 0 542.8 0C529 0 515 0 501 0C487 0 473 0 459 0C445 0 431 0 417.2 0C403.3 0 389.7 0 375.8 0C362 0 348 0 334 0C320 0 306 0 292 0C278 0 264 0 250.2 0C236.3 0 222.7 0 208.8 0C195 0 181 0 167 0C153 0 139 0 125 0C111 0 97 0 83.2 0C69.3 0 55.7 0 41.8 0C28 0 14 0 7 0L0 0Z" fill="#da3f67"></path><path d="M0 26L7 27.7C14 29.3 28 32.7 41.8 32.3C55.7 32 69.3 28 83.2 27.5C97 27 111 30 125 30C139 30 153 27 167 27.3C181 27.7 195 31.3 208.8 32.5C222.7 33.7 236.3 32.3 250.2 33C264 33.7 278 36.3 292 36.3C306 36.3 320 33.7 334 31.8C348 30 362 29 375.8 29.2C389.7 29.3 403.3 30.7 417.2 32.3C431 34 445 36 459 38C473 40 487 42 501 40.5C515 39 529 34 542.8 30.8C556.7 27.7 570.3 26.3 584.2 27.2C598 28 612 31 626 32.7C640 34.3 654 34.7 668 35.8C682 37 696 39 709.8 37.3C723.7 35.7 737.3 30.3 751.2 27.5C765 24.7 779 24.3 793 24.2C807 24 821 24 835 24.2C849 24.3 863 24.7 876.8 26C890.7 27.3 904.3 29.7 918.2 31.3C932 33 946 34 953 34.5L960 35L960 0L953 0C946 0 932 0 918.2 0C904.3 0 890.7 0 876.8 0C863 0 849 0 835 0C821 0 807 0 793 0C779 0 765 0 751.2 0C737.3 0 723.7 0 709.8 0C696 0 682 0 668 0C654 0 640 0 626 0C612 0 598 0 584.2 0C570.3 0 556.7 0 542.8 0C529 0 515 0 501 0C487 0 473 0 459 0C445 0 431 0 417.2 0C403.3 0 389.7 0 375.8 0C362 0 348 0 334 0C320 0 306 0 292 0C278 0 264 0 250.2 0C236.3 0 222.7 0 208.8 0C195 0 181 0 167 0C153 0 139 0 125 0C111 0 97 0 83.2 0C69.3 0 55.7 0 41.8 0C28 0 14 0 7 0L0 0Z" fill="#d03267"></path><path d="M0 9L7 11C14 13 28 17 41.8 19.2C55.7 21.3 69.3 21.7 83.2 20.2C97 18.7 111 15.3 125 15.7C139 16 153 20 167 21C181 22 195 20 208.8 18.5C222.7 17 236.3 16 250.2 16.7C264 17.3 278 19.7 292 19.3C306 19 320 16 334 14.5C348 13 362 13 375.8 15C389.7 17 403.3 21 417.2 22C431 23 445 21 459 20.5C473 20 487 21 501 20.3C515 19.7 529 17.3 542.8 17.7C556.7 18 570.3 21 584.2 20.2C598 19.3 612 14.7 626 15C640 15.3 654 20.7 668 21.7C682 22.7 696 19.3 709.8 16.7C723.7 14 737.3 12 751.2 12.7C765 13.3 779 16.7 793 16.5C807 16.3 821 12.7 835 13.7C849 14.7 863 20.3 876.8 23.2C890.7 26 904.3 26 918.2 23.8C932 21.7 946 17.3 953 15.2L960 13L960 0L953 0C946 0 932 0 918.2 0C904.3 0 890.7 0 876.8 0C863 0 849 0 835 0C821 0 807 0 793 0C779 0 765 0 751.2 0C737.3 0 723.7 0 709.8 0C696 0 682 0 668 0C654 0 640 0 626 0C612 0 598 0 584.2 0C570.3 0 556.7 0 542.8 0C529 0 515 0 501 0C487 0 473 0 459 0C445 0 431 0 417.2 0C403.3 0 389.7 0 375.8 0C362 0 348 0 334 0C320 0 306 0 292 0C278 0 264 0 250.2 0C236.3 0 222.7 0 208.8 0C195 0 181 0 167 0C153 0 139 0 125 0C111 0 97 0 83.2 0C69.3 0 55.7 0 41.8 0C28 0 14 0 7 0L0 0Z" fill="#c62368"></path></svg>